<svg height="457pt" viewBox="-58 0 457 457.14286" width="457pt" xmlns="http://www.w3.org/2000/svg"><path d="m337.597656 112.394531-109.714844-109.714843c-1.714843-1.714844-4.039062-2.679688-6.464843-2.679688h-212.203125c-5.050782 0-9.1445315 4.089844-9.1445315 9.144531v438.855469c0 5.054688 4.0937495 9.144531 9.1445315 9.144531h321.917968c5.050782 0 9.144532-4.089843 9.144532-9.144531v-329.144531c0-2.425781-.964844-4.75-2.679688-6.460938zm-107.035156-81.179687 78.5 78.5h-78.5zm-212.207031 407.640625v-420.570313h193.921875v100.570313c0 5.054687 4.09375 9.144531 9.140625 9.144531h100.574219v310.855469zm0 0"/><path d="m72.082031 295.105469 64.855469 33.40625v-9.640625l-54.660156-27.40625v-.273438l54.660156-27.398437v-9.652344l-64.855469 33.417969zm0 0"/><path d="m146.078125 334.101562h9.367187l39.132813-101.347656h-9.503906zm0 0"/><path d="m203.410156 263.792969 55.070313 27.398437v.273438l-55.070313 27.40625v9.640625l64.859375-33.269531v-7.828126l-64.859375-33.273437zm0 0"/></svg>